<?xml version="1.0" standalone="no"?>
<!DOCTYPE svg PUBLIC "-//W3C//DTD SVG 20010904//EN"
 "http://www.w3.org/TR/2001/REC-SVG-20010904/DTD/svg10.dtd">
<svg version="1.0" xmlns="http://www.w3.org/2000/svg"
 width="298.000000pt" height="298.000000pt" viewBox="0 0 298.000000 298.000000"
 preserveAspectRatio="xMidYMid meet">
<metadata>
Created by potrace 1.11, written by Peter Selinger 2001-2013
</metadata>
<g transform="translate(0.000000,298.000000) scale(0.100000,-0.100000)"
fill="#000000" stroke="none">
<path d="M1307 2974 c-2 -3 -20 -6 -38 -8 -38 -4 -152 -33 -177 -45 -128 -60
-197 -99 -247 -136 -196 -148 -313 -328 -371 -572 -20 -89 -28 -233 -11 -234
43 -2 629 0 632 3 1 1 5 19 8 38 19 144 75 226 186 277 164 74 361 2 442 -162
33 -67 40 -132 25 -220 -19 -111 -125 -217 -527 -525 -210 -160 -407 -360
-519 -525 -19 -27 -37 -51 -42 -53 -4 -2 -8 -10 -8 -18 0 -8 -4 -14 -8 -14
-17 0 -98 -153 -153 -290 -57 -143 -91 -279 -105 -422 l-7 -68 1102 0 1101 0
0 320 0 320 -117 0 c-65 0 -337 0 -605 0 -269 0 -488 3 -488 7 1 27 179 189
420 383 275 221 498 473 562 636 52 130 72 311 53 473 -48 412 -371 745 -800
825 -74 13 -297 21 -308 10z"/>
</g>
</svg>
